<svg width="72" height="51" viewBox="0 0 72 51" fill="none" xmlns="http://www.w3.org/2000/svg">
<rect x="0.980469" y="0.810059" width="50" height="50" rx="25" fill="#4BAF47"/>
<g clip-path="url(#clip0_4138_677)">
<path d="M65.062 49.8726C66.9034 49.8726 68.4687 49.8817 69.7577 49.8999C71.0466 49.9181 71.6911 49.9403 71.6911 49.9663V50.4351C71.6911 50.478 71.1157 50.5187 69.9648 50.5571C68.8139 50.5949 67.2372 50.6279 65.2347 50.6562C63.2321 50.6846 60.8958 50.7069 58.2257 50.7231C55.5096 50.7394 52.6324 50.7476 49.5941 50.7476H48.4892C47.5685 50.7476 46.7859 50.743 46.1414 50.7339C45.4969 50.7248 45.1746 50.7137 45.1746 50.7007V50.6069C45.1746 50.5939 45.4969 50.5828 46.1414 50.5737C46.7859 50.5646 47.5685 50.5601 48.4892 50.5601H49.5941C52.0339 50.5601 54.1171 50.5479 55.8434 50.5234C57.5697 50.499 58.4329 50.4696 58.4329 50.4351V50.3101H47.3843C45.5429 50.3101 43.9777 50.3009 42.6887 50.2827C41.3997 50.2645 40.7552 50.2424 40.7552 50.2163V49.9663C40.7552 49.9403 41.3997 49.9181 42.6887 49.8999C43.9777 49.8817 45.5429 49.8726 47.3843 49.8726H65.062ZM25.2873 49.8726C27.1287 49.8726 28.6939 49.8817 29.9829 49.8999C31.2719 49.9181 31.9164 49.9403 31.9164 49.9663V50.4351C31.9164 50.478 31.3409 50.5187 30.1901 50.5571C29.0392 50.5949 27.4624 50.6279 25.4599 50.6562C23.4573 50.6846 21.121 50.7069 18.451 50.7231C15.7349 50.7394 12.8577 50.7476 9.8193 50.7476H8.71445C7.79374 50.7476 7.01113 50.743 6.36663 50.7339C5.72214 50.7248 5.39989 50.7137 5.39989 50.7007V50.6069C5.39989 50.5939 5.72214 50.5828 6.36663 50.5737C7.01113 50.5646 7.79374 50.5601 8.71445 50.5601H9.8193C12.2592 50.5601 14.3423 50.5479 16.0686 50.5234C17.795 50.499 18.6581 50.4696 18.6581 50.4351V50.3101H7.60959C5.76817 50.3101 4.20296 50.3009 2.91396 50.2827C1.62497 50.2645 0.980469 50.2424 0.980469 50.2163V49.9663C0.980469 49.9403 1.62497 49.9181 2.91396 49.8999C4.20296 49.8817 5.76817 49.8726 7.60959 49.8726H25.2873Z" fill="white"/>
</g>
<defs>
<clipPath id="clip0_4138_677">
<rect width="70.7107" height="1" fill="white" transform="matrix(1 0 0 -1 0.980469 50.8101)"/>
</clipPath>
</defs>
</svg>
