<svg width="70" height="71" viewBox="0 0 70 71" fill="none" xmlns="http://www.w3.org/2000/svg">
<rect y="0.280029" width="70" height="70" rx="7" fill="#C5CE38"/>
<path d="M17.2754 42.8484C17.6009 43.1739 17.9671 43.4262 18.374 43.6052C18.7809 43.7843 19.2285 43.8738 19.7168 43.8738H20.5957C21.084 43.8738 21.5316 43.7843 21.9385 43.6052C22.3454 43.4262 22.7116 43.1739 23.0371 42.8484C23.3626 42.5229 23.6149 42.1567 23.7939 41.7498C23.973 41.3429 24.0625 40.8953 24.0625 40.407C24.0625 39.6908 23.9811 38.9828 23.8184 38.283C23.6556 37.5831 23.4115 36.9076 23.0859 36.2566L20.8398 31.8132C20.7096 31.5528 20.4818 31.4226 20.1562 31.4226C19.8307 31.4226 19.6029 31.5528 19.4727 31.8132L17.2266 36.2566C16.901 36.9076 16.6569 37.5831 16.4941 38.283C16.3314 38.9828 16.25 39.6908 16.25 40.407C16.25 40.8953 16.3395 41.3429 16.5186 41.7498C16.6976 42.1567 16.9499 42.5229 17.2754 42.8484ZM18.6426 36.9402L20.1562 33.9128L21.6699 36.9402C21.9303 37.4936 22.1338 38.0632 22.2803 38.6492C22.4268 39.2351 22.5 39.821 22.5 40.407C22.5 40.6674 22.4512 40.9115 22.3535 41.1394C22.2559 41.3673 22.1257 41.5789 21.9629 41.7742C21.7676 41.9369 21.556 42.0671 21.3281 42.1648C21.1003 42.2625 20.8561 42.3113 20.5957 42.3113H19.7168C19.4564 42.3113 19.2122 42.2625 18.9844 42.1648C18.7565 42.0671 18.5449 41.9369 18.3496 41.7742C18.1868 41.5789 18.0566 41.3673 17.959 41.1394C17.8613 40.9115 17.8125 40.6674 17.8125 40.407C17.8125 39.821 17.8857 39.2351 18.0322 38.6492C18.1787 38.0632 18.3822 37.4936 18.6426 36.9402ZM44.375 43.8738H45.9375V51.6863H44.375V43.8738ZM44.375 53.2488H45.9375V54.8113H44.375V53.2488ZM56.0938 51.6863H49.0625V32.155C49.0625 31.9272 48.9893 31.74 48.8428 31.5935C48.6963 31.447 48.5091 31.3738 48.2812 31.3738H36.5625V19.655C36.5625 19.5574 36.5462 19.4597 36.5137 19.3621C36.4811 19.2644 36.416 19.183 36.3184 19.1179L33.4375 16.1882V11.8425C33.4375 11.6147 33.3643 11.4275 33.2178 11.281C33.0713 11.1345 32.8841 11.0613 32.6562 11.0613H13.9062C13.6784 11.0613 13.4912 11.1345 13.3447 11.281C13.1982 11.4275 13.125 11.6147 13.125 11.8425V16.1882L10.2441 19.1179C10.1465 19.183 10.0814 19.2644 10.0488 19.3621C10.0163 19.4597 10 19.5574 10 19.655V55.5925C10 55.8204 10.0732 56.0076 10.2197 56.1541C10.3662 56.3005 10.5534 56.3738 10.7812 56.3738H31.9727C32.1354 57.2527 32.5749 57.9932 33.291 58.5955C34.0072 59.1977 34.8372 59.4988 35.7812 59.4988H51.4062C52.0573 59.4988 52.6107 59.2709 53.0664 58.8152C53.5221 58.3595 53.75 57.8061 53.75 57.155C53.75 56.9272 53.8232 56.74 53.9697 56.5935C54.1162 56.447 54.3034 56.3738 54.5312 56.3738H56.0938C56.7448 56.3738 57.2982 56.1459 57.7539 55.6902C58.2096 55.2345 58.4375 54.6811 58.4375 54.03C58.4375 53.379 58.2096 52.8256 57.7539 52.3699C57.2982 51.9141 56.7448 51.6863 56.0938 51.6863ZM47.5 39.7722C47.207 39.5769 46.9059 39.4304 46.5967 39.3328C46.2874 39.2351 45.9538 39.1863 45.5957 39.1863H44.7168C44.2285 39.1863 43.7809 39.2758 43.374 39.4548C42.9671 39.6339 42.6009 39.8861 42.2754 40.2117C42.0801 40.3744 41.8685 40.5046 41.6406 40.6023C41.4128 40.7 41.1686 40.7488 40.9082 40.7488H40.0293C39.7689 40.7488 39.5247 40.7 39.2969 40.6023C39.069 40.5046 38.8574 40.3744 38.6621 40.2117C38.3366 39.8861 37.9704 39.6339 37.5635 39.4548C37.1566 39.2758 36.709 39.1863 36.2207 39.1863H35.3418C34.9837 39.1863 34.6501 39.2351 34.3408 39.3328C34.0316 39.4304 33.7305 39.5769 33.4375 39.7722V32.9363H47.5V39.7722ZM35 31.3738H32.6562C32.4284 31.3738 32.2412 31.447 32.0947 31.5935C31.9482 31.74 31.875 31.9272 31.875 32.155V54.8113H30.3125V19.9968L32.6562 17.6531L35 19.9968V31.3738ZM14.248 17.3113H30.752L29.1895 18.8738H12.6855L14.248 17.3113ZM28.75 20.4363V26.6863H11.5625V20.4363H28.75ZM28.75 28.2488V46.9988H11.5625V28.2488H28.75ZM14.6875 12.6238H31.875V15.7488H14.6875V12.6238ZM11.5625 54.8113V48.5613H28.75V54.8113H11.5625ZM35.7812 57.9363C35.1302 57.9363 34.5768 57.7084 34.1211 57.2527C33.6654 56.797 33.4375 56.2436 33.4375 55.5925V41.8718L33.9746 41.2859C34.1699 41.1231 34.3815 40.9929 34.6094 40.8953C34.8372 40.7976 35.0814 40.7488 35.3418 40.7488H36.2207C36.4811 40.7488 36.7253 40.7976 36.9531 40.8953C37.181 40.9929 37.3926 41.1231 37.5879 41.2859C37.9134 41.6114 38.2796 41.8637 38.6865 42.0427C39.0934 42.2218 39.541 42.3113 40.0293 42.3113H40.9082C41.3965 42.3113 41.8441 42.2218 42.251 42.0427C42.6579 41.8637 43.0241 41.6114 43.3496 41.2859C43.5449 41.1231 43.7565 40.9929 43.9844 40.8953C44.2122 40.7976 44.4564 40.7488 44.7168 40.7488H45.5957C45.8561 40.7488 46.1003 40.7976 46.3281 40.8953C46.556 40.9929 46.7676 41.1231 46.9629 41.2859L47.5 41.8718V55.5925C47.5 56.2436 47.2721 56.797 46.8164 57.2527C46.3607 57.7084 45.8073 57.9363 45.1562 57.9363H35.7812ZM56.0938 54.8113H54.5312C53.8802 54.8113 53.3268 55.0391 52.8711 55.4949C52.4154 55.9506 52.1875 56.504 52.1875 57.155C52.1875 57.3829 52.1143 57.5701 51.9678 57.7166C51.8213 57.863 51.6341 57.9363 51.4062 57.9363H48.2812C48.5091 57.6108 48.6963 57.2527 48.8428 56.8621C48.9893 56.4714 49.0625 56.0483 49.0625 55.5925V53.2488H56.0938C56.3216 53.2488 56.5088 53.322 56.6553 53.4685C56.8018 53.615 56.875 53.8022 56.875 54.03C56.875 54.2579 56.8018 54.4451 56.6553 54.5916C56.5088 54.738 56.3216 54.8113 56.0938 54.8113Z" fill="white"/>
</svg>
