<svg width="70" height="71" viewBox="0 0 70 71" fill="none" xmlns="http://www.w3.org/2000/svg">
<rect y="0.280029" width="70" height="70" rx="7" fill="#C5CE38"/>
<path d="M58.4375 38.3562C58.4375 36.6635 58.0469 35.0522 57.2656 33.5222C56.4844 31.9923 55.4102 30.7065 54.043 29.6648C53.75 29.4695 53.4326 29.3149 53.0908 29.2009C52.749 29.087 52.3991 29.03 52.041 29.03C51.6178 29.03 51.2028 29.1114 50.7959 29.2742C50.389 29.4369 50.0391 29.6648 49.7461 29.9578C49.681 29.9252 49.624 29.8845 49.5752 29.8357C49.5264 29.7869 49.4694 29.7462 49.4043 29.7136C49.209 29.5183 48.9811 29.3718 48.7207 29.2742C48.4603 29.1765 48.1999 29.1114 47.9395 29.0789L48.2812 25.3191C48.2812 25.254 48.2812 25.197 48.2812 25.1482C48.2812 25.0994 48.2812 25.0587 48.2812 25.0261C48.2812 24.1798 47.9883 23.4636 47.4023 22.8777C46.8164 22.2917 46.1003 21.9988 45.2539 21.9988H45.0586C44.2122 21.9988 43.4961 22.2917 42.9102 22.8777C42.3242 23.4636 42.0312 24.1798 42.0312 25.0261C42.0312 25.0587 42.0312 25.0994 42.0312 25.1482C42.0312 25.197 42.0312 25.254 42.0312 25.3191L42.373 29.0789C42.1452 29.144 41.9092 29.2253 41.665 29.323C41.4209 29.4207 41.2012 29.5346 41.0059 29.6648C40.9408 29.7299 40.8757 29.795 40.8105 29.8601C40.7454 29.9252 40.6803 29.974 40.6152 30.0066C40.5827 29.974 40.5501 29.9415 40.5176 29.9089C40.485 29.8764 40.4362 29.8438 40.3711 29.8113C40.4036 29.6811 40.4281 29.5509 40.4443 29.4207C40.4606 29.2904 40.4688 29.1602 40.4688 29.03C40.4688 28.5417 40.3955 28.0616 40.249 27.5896C40.1025 27.1176 39.8828 26.6863 39.5898 26.2957C39.8828 25.905 40.1025 25.4737 40.249 25.0017C40.3955 24.5297 40.4688 24.0496 40.4688 23.5613C40.4688 22.2266 39.9805 21.0955 39.0039 20.1677C38.0273 19.24 36.8555 18.8087 35.4883 18.8738C35.2604 18.1576 34.8698 17.5391 34.3164 17.0183C33.763 16.4975 33.1283 16.1394 32.4121 15.9441C31.9238 15.3582 31.3379 14.9106 30.6543 14.6013C29.9707 14.2921 29.2383 14.1537 28.457 14.1863C28.1315 13.2748 27.57 12.5261 26.7725 11.9402C25.9749 11.3542 25.0716 11.0613 24.0625 11.0613C23.2161 11.0613 22.4349 11.2729 21.7188 11.696C21.0026 12.1192 20.4329 12.6889 20.0098 13.405C18.9681 13.4376 18.0404 13.7875 17.2266 14.4548C16.4128 15.1222 15.8757 15.9441 15.6152 16.9207C14.4108 17.3764 13.4342 18.1414 12.6855 19.2156C11.9368 20.2898 11.5625 21.4779 11.5625 22.78C11.5625 23.8217 11.8066 24.7983 12.2949 25.7097C12.7832 26.6212 13.4505 27.3699 14.2969 27.9558C14.1667 28.2488 14.069 28.5499 14.0039 28.8591C13.9388 29.1684 13.9062 29.4858 13.9062 29.8113C13.9062 30.5274 14.0527 31.1947 14.3457 31.8132C14.6387 32.4317 15.0618 32.9688 15.6152 33.4246C15.5501 33.5873 15.5094 33.7582 15.4932 33.9373C15.4769 34.1163 15.4688 34.3035 15.4688 34.4988C15.4688 35.7032 15.8675 36.7449 16.665 37.6238C17.4626 38.5027 18.431 39.0072 19.5703 39.1375L21.3281 43.9714C20.8724 44.297 20.4574 44.6632 20.083 45.0701C19.7087 45.477 19.375 45.9246 19.082 46.4128L15.0293 45.4851C14.9316 45.4851 14.8421 45.477 14.7607 45.4607C14.6794 45.4444 14.6061 45.4363 14.541 45.4363C13.9225 45.4363 13.4017 45.6479 12.9785 46.071C12.5553 46.4942 12.3438 47.0151 12.3438 47.6335V47.9265C12.3438 48.0567 12.3519 48.1707 12.3682 48.2683C12.3844 48.366 12.4089 48.4636 12.4414 48.5613H12.3438C11.6927 48.5613 11.1393 48.7891 10.6836 49.2449C10.2279 49.7006 10 50.254 10 50.905C10 51.5561 10.2279 52.1095 10.6836 52.5652C11.1393 53.0209 11.6927 53.2488 12.3438 53.2488H12.4414C12.4089 53.3464 12.3844 53.4441 12.3682 53.5417C12.3519 53.6394 12.3438 53.7533 12.3438 53.8835V54.1765C12.3438 54.795 12.5553 55.3158 12.9785 55.739C13.4017 56.1622 13.9225 56.3738 14.541 56.3738C14.6061 56.3738 14.6794 56.3656 14.7607 56.3494C14.8421 56.3331 14.9316 56.325 15.0293 56.325L19.082 55.3972C19.8633 56.6342 20.8968 57.627 22.1826 58.3757C23.4684 59.1244 24.8763 59.4988 26.4062 59.4988H26.6016C26.7969 59.4988 27.0085 59.4906 27.2363 59.4744C27.4642 59.4581 27.6921 59.4337 27.9199 59.4011L54.6777 55.2996C55.7845 55.1042 56.6878 54.5997 57.3877 53.7859C58.0876 52.9721 58.4375 52.0118 58.4375 50.905C58.4375 50.0261 58.2015 49.2286 57.7295 48.5125C57.2575 47.7963 56.6471 47.2592 55.8984 46.9011C56.7122 45.9571 57.3389 44.891 57.7783 43.7029C58.2178 42.5147 58.4375 41.2859 58.4375 40.0164V38.3562ZM48.4766 30.9343C49.6484 31.8132 50.5599 32.9281 51.2109 34.2791C51.862 35.63 52.1875 37.0541 52.1875 38.5515V41.3835C52.1875 42.1973 52.0898 42.9867 51.8945 43.7517C51.6992 44.5167 51.4062 45.2572 51.0156 45.9734L44.7656 44.9968C44.6354 44.4434 44.5378 43.8738 44.4727 43.2878C44.4076 42.7019 44.375 42.116 44.375 41.53V38.405C44.375 37.9819 44.3913 37.575 44.4238 37.1843C44.4564 36.7937 44.5052 36.4031 44.5703 36.0125C44.668 36.045 44.7656 36.0613 44.8633 36.0613C44.9609 36.0613 45.0586 36.0613 45.1562 36.0613C46.263 36.0613 47.1908 35.8416 47.9395 35.4021C48.6882 34.9626 49.0625 34.4011 49.0625 33.7175C49.0625 33.3595 48.9404 33.0177 48.6963 32.6921C48.4521 32.3666 48.1022 32.1062 47.6465 31.9109L47.793 30.6414C47.9232 30.6739 48.0452 30.7146 48.1592 30.7634C48.2731 30.8123 48.3789 30.8692 48.4766 30.9343ZM45.0586 23.5613H45.2539C45.6445 23.5613 45.9863 23.7078 46.2793 24.0007C46.5723 24.2937 46.7188 24.6355 46.7188 25.0261C46.7188 25.0587 46.7188 25.0831 46.7188 25.0994C46.7188 25.1156 46.7188 25.1401 46.7188 25.1726L45.9863 32.9363L46.6211 33.1316C46.9466 33.2618 47.1745 33.3839 47.3047 33.4978C47.4349 33.6117 47.5 33.685 47.5 33.7175C47.5 33.8152 47.2966 33.9698 46.8896 34.1814C46.4827 34.393 45.9049 34.4988 45.1562 34.4988C44.4076 34.4988 43.8298 34.393 43.4229 34.1814C43.0159 33.9698 42.8125 33.8152 42.8125 33.7175C42.8125 33.685 42.8776 33.6117 43.0078 33.4978C43.138 33.3839 43.3659 33.2618 43.6914 33.1316L44.3262 32.9363L43.5938 25.1726C43.5938 25.1401 43.5938 25.1156 43.5938 25.0994C43.5938 25.0831 43.5938 25.0587 43.5938 25.0261C43.5938 24.6355 43.7402 24.2937 44.0332 24.0007C44.3262 23.7078 44.668 23.5613 45.0586 23.5613ZM42.5195 30.6414L42.666 31.9109C42.2103 32.1062 41.8604 32.3666 41.6162 32.6921C41.3721 33.0177 41.25 33.3595 41.25 33.7175C41.25 34.1407 41.4128 34.5232 41.7383 34.865C42.0638 35.2068 42.5033 35.4916 43.0566 35.7195C42.9915 36.1427 42.9346 36.5821 42.8857 37.0378C42.8369 37.4936 42.8125 37.9493 42.8125 38.405V41.53C42.8125 42.0834 42.8369 42.6287 42.8857 43.1658C42.9346 43.7029 43.0078 44.2319 43.1055 44.7527L38.5156 44.0203C38.3854 43.5971 38.2878 43.1658 38.2227 42.7263C38.1576 42.2869 38.125 41.8393 38.125 41.3835V38.5515C38.125 37.0541 38.4587 35.63 39.126 34.2791C39.7933 32.9281 40.7292 31.8132 41.9336 30.9343C42.0312 30.8692 42.1289 30.8123 42.2266 30.7634C42.3242 30.7146 42.4219 30.6739 42.5195 30.6414ZM34.0723 43.3855C33.877 42.8321 33.7223 42.2787 33.6084 41.7253C33.4945 41.172 33.4375 40.6023 33.4375 40.0164V38.3562C33.4375 36.9239 33.7712 35.5486 34.4385 34.2302C35.1058 32.9119 36.0254 31.8132 37.1973 30.9343C37.36 30.8367 37.5309 30.7553 37.71 30.6902C37.889 30.6251 38.0762 30.5925 38.2715 30.5925C38.4993 30.5925 38.7191 30.6414 38.9307 30.739C39.1423 30.8367 39.3294 30.9506 39.4922 31.0808C38.5482 32.0899 37.8239 33.2374 37.3193 34.5232C36.8148 35.809 36.5625 37.1518 36.5625 38.5515V41.3835C36.5625 41.8067 36.5869 42.2136 36.6357 42.6042C36.6846 42.9949 36.7578 43.3855 36.8555 43.7761L34.0723 43.3855ZM34.1699 19.8992L34.3164 20.6804L35.0977 20.5339C35.2279 20.5014 35.3499 20.477 35.4639 20.4607C35.5778 20.4444 35.6836 20.4363 35.7812 20.4363C36.6276 20.4363 37.36 20.7455 37.9785 21.364C38.597 21.9825 38.9062 22.7149 38.9062 23.5613C38.9062 23.9845 38.833 24.3832 38.6865 24.7576C38.54 25.1319 38.3203 25.4656 38.0273 25.7585L37.4902 26.2957L38.0273 26.8328C38.3203 27.1257 38.54 27.4594 38.6865 27.8337C38.833 28.2081 38.9062 28.6069 38.9062 29.03C38.9062 29.03 38.9062 29.0382 38.9062 29.0544C38.9062 29.0707 38.9062 29.0789 38.9062 29.0789C38.8086 29.0789 38.7028 29.0707 38.5889 29.0544C38.4749 29.0382 38.3691 29.03 38.2715 29.03C37.9134 29.03 37.5635 29.087 37.2217 29.2009C36.8799 29.3149 36.5625 29.4695 36.2695 29.6648C35.5859 30.1856 34.9593 30.7878 34.3896 31.4714C33.82 32.155 33.3561 32.8712 32.998 33.6199C32.8353 33.1641 32.6807 32.7166 32.5342 32.2771C32.3877 31.8376 32.2331 31.4063 32.0703 30.9832C32.4284 29.0951 33.0876 27.6222 34.0479 26.5642C35.0081 25.5063 35.4883 24.961 35.4883 24.9285L35 24.3425L34.5117 23.7566C34.4466 23.7891 34.0072 24.2286 33.1934 25.075C32.3796 25.9213 31.6797 27.1095 31.0938 28.6394C30.2799 26.7839 29.5475 25.2947 28.8965 24.1716C28.2454 23.0486 27.8874 22.4382 27.8223 22.3406L26.5527 23.2195C26.5527 23.2195 26.805 23.6589 27.3096 24.5378C27.8141 25.4167 28.4245 26.6049 29.1406 28.1023C27.9688 27.6466 26.8376 27.4268 25.7471 27.4431C24.6566 27.4594 24.0625 27.4675 23.9648 27.4675L24.1602 29.03C24.7461 28.9649 25.7064 29.0056 27.041 29.1521C28.3757 29.2986 29.4336 29.7625 30.2148 30.5437C30.4753 31.2273 30.7357 31.9353 30.9961 32.6677C31.2565 33.4001 31.5169 34.157 31.7773 34.9382C30.5729 34.3523 29.3929 34.0024 28.2373 33.8884C27.0817 33.7745 26.4714 33.7175 26.4062 33.7175V35.28C26.4388 35.28 27.1224 35.3533 28.457 35.4998C29.7917 35.6462 30.9635 36.1264 31.9727 36.9402C31.9401 37.1681 31.9157 37.4041 31.8994 37.6482C31.8831 37.8923 31.875 38.1283 31.875 38.3562V40.0164C31.875 40.5372 31.9157 41.058 31.9971 41.5789C32.0785 42.0997 32.2005 42.6042 32.3633 43.0925L27.9199 42.4089C27.7897 42.4089 27.6676 42.4008 27.5537 42.3845C27.4398 42.3682 27.3177 42.3438 27.1875 42.3113C26.3411 42.3113 25.6087 42.0102 24.9902 41.408C24.3717 40.8057 24.0625 40.0652 24.0625 39.1863C24.0625 38.991 24.0788 38.8038 24.1113 38.6248C24.1439 38.4457 24.1927 38.2585 24.2578 38.0632L24.502 37.4773L23.9648 37.1355C23.5091 36.8425 23.151 36.46 22.8906 35.988C22.6302 35.516 22.5 35.0196 22.5 34.4988C22.5 34.2058 22.5407 33.9128 22.6221 33.6199C22.7035 33.3269 22.8418 33.0502 23.0371 32.7898L23.5254 32.0574L22.7441 31.6667C21.9303 31.2436 21.2956 30.6576 20.8398 29.9089C20.3841 29.1602 20.1562 28.3464 20.1562 27.4675C20.1562 26.4259 20.4736 25.49 21.1084 24.6599C21.7432 23.8298 22.5651 23.2683 23.5742 22.9753L24.0625 22.8289L24.1113 22.3406C24.209 21.5593 24.5508 20.9164 25.1367 20.4119C25.7227 19.9073 26.4062 19.655 27.1875 19.655C27.1875 19.655 27.1956 19.655 27.2119 19.655C27.2282 19.655 27.2526 19.655 27.2852 19.655C27.3177 19.655 27.3421 19.6632 27.3584 19.6794C27.3747 19.6957 27.3991 19.7039 27.4316 19.7039L28.0176 19.7527L28.2129 19.2156C28.4733 18.6296 28.8639 18.1658 29.3848 17.824C29.9056 17.4822 30.4753 17.3113 31.0938 17.3113C31.8424 17.3113 32.5098 17.5554 33.0957 18.0437C33.6816 18.532 34.0397 19.1505 34.1699 19.8992ZM20.6934 37.6238H20.1562C19.3099 37.6238 18.5775 37.3145 17.959 36.696C17.3405 36.0776 17.0312 35.3451 17.0312 34.4988C17.0312 34.3035 17.0475 34.1163 17.0801 33.9373C17.1126 33.7582 17.1615 33.571 17.2266 33.3757L17.4707 32.7898L16.9336 32.448C16.4779 32.155 16.1198 31.7725 15.8594 31.3005C15.599 30.8285 15.4688 30.3321 15.4688 29.8113C15.4688 29.5183 15.5094 29.2253 15.5908 28.9324C15.6722 28.6394 15.8105 28.3627 16.0059 28.1023L16.4941 27.3699L15.7129 26.9792C14.8991 26.5561 14.2643 25.9701 13.8086 25.2214C13.3529 24.4727 13.125 23.6589 13.125 22.78C13.125 21.7384 13.4424 20.8025 14.0771 19.9724C14.7119 19.1423 15.5339 18.5808 16.543 18.2878L17.0312 18.1414L17.0801 17.6531C17.1777 16.8718 17.5195 16.2289 18.1055 15.7244C18.6914 15.2198 19.375 14.9675 20.1562 14.9675C20.1562 14.9675 20.1644 14.9675 20.1807 14.9675C20.1969 14.9675 20.2214 14.9675 20.2539 14.9675C20.2865 14.9675 20.3109 14.9757 20.3271 14.9919C20.3434 15.0082 20.3678 15.0164 20.4004 15.0164L20.9863 15.0652L21.1816 14.5281C21.4421 13.9421 21.8327 13.4783 22.3535 13.1365C22.8743 12.7947 23.444 12.6238 24.0625 12.6238C24.8112 12.6238 25.4785 12.8679 26.0645 13.3562C26.6504 13.8445 27.0085 14.463 27.1387 15.2117L27.2852 15.9929L28.0664 15.8464C28.1966 15.8139 28.3187 15.7895 28.4326 15.7732C28.5465 15.7569 28.6523 15.7488 28.75 15.7488C28.9453 15.7488 29.1243 15.7651 29.2871 15.7976C29.4499 15.8302 29.6126 15.879 29.7754 15.9441C29.1895 16.1069 28.6605 16.3754 28.1885 16.7498C27.7165 17.1241 27.334 17.5717 27.041 18.0925C25.9993 18.1251 25.0716 18.475 24.2578 19.1423C23.444 19.8097 22.9069 20.6316 22.6465 21.6082C21.4421 22.0639 20.4655 22.8289 19.7168 23.9031C18.9681 24.9773 18.5938 26.1654 18.5938 27.4675C18.5938 28.5092 18.8379 29.4858 19.3262 30.3972C19.8145 31.3087 20.4818 32.0574 21.3281 32.6433C21.1979 32.9363 21.1003 33.2374 21.0352 33.5466C20.9701 33.8559 20.9375 34.1733 20.9375 34.4988C20.9375 35.2149 21.084 35.8822 21.377 36.5007C21.6699 37.1192 22.0931 37.6563 22.6465 38.1121C22.5814 38.2748 22.5407 38.4457 22.5244 38.6248C22.5081 38.8038 22.5 38.991 22.5 39.1863C22.5 39.8699 22.6383 40.5128 22.915 41.115C23.1917 41.7172 23.5579 42.2299 24.0137 42.6531C23.7858 42.7182 23.5579 42.7914 23.3301 42.8728C23.1022 42.9542 22.8906 43.06 22.6953 43.1902L20.6934 37.6238ZM13.9062 47.9265V47.6335C13.9062 47.4382 13.9876 47.2755 14.1504 47.1453C14.3132 47.0151 14.4922 46.9662 14.6875 46.9988L18.3984 47.8289C18.3333 47.9591 18.2845 48.0811 18.252 48.1951C18.2194 48.309 18.1868 48.4311 18.1543 48.5613H14.541C14.3783 48.5613 14.2318 48.4962 14.1016 48.366C13.9714 48.2358 13.9062 48.0893 13.9062 47.9265ZM11.5625 50.905C11.5625 50.6772 11.6357 50.49 11.7822 50.3435C11.9287 50.197 12.1159 50.1238 12.3438 50.1238H17.8613C17.8288 50.254 17.8125 50.3842 17.8125 50.5144C17.8125 50.6446 17.8125 50.7748 17.8125 50.905C17.8125 51.0352 17.8125 51.1654 17.8125 51.2957C17.8125 51.4259 17.8288 51.5561 17.8613 51.6863H12.3438C12.1159 51.6863 11.9287 51.613 11.7822 51.4666C11.6357 51.3201 11.5625 51.1329 11.5625 50.905ZM14.6875 54.8113C14.4922 54.8438 14.3132 54.795 14.1504 54.6648C13.9876 54.5346 13.9062 54.3718 13.9062 54.1765V53.8835C13.9062 53.7208 13.9714 53.5743 14.1016 53.4441C14.2318 53.3139 14.3783 53.2488 14.541 53.2488H18.1543C18.1868 53.379 18.2194 53.5011 18.252 53.615C18.2845 53.7289 18.3333 53.851 18.3984 53.9812L14.6875 54.8113ZM56.875 50.905C56.875 51.6212 56.6471 52.2478 56.1914 52.7849C55.7357 53.322 55.1497 53.6394 54.4336 53.7371L27.6758 57.8386C27.4805 57.8712 27.2933 57.8956 27.1143 57.9119C26.9352 57.9281 26.7643 57.9363 26.6016 57.9363H26.4062C24.4531 57.9363 22.793 57.2527 21.4258 55.8855C20.0586 54.5183 19.375 52.8582 19.375 50.905C19.375 48.9519 20.0586 47.2917 21.4258 45.9246C22.793 44.5574 24.4531 43.8738 26.4062 43.8738H26.6016C26.7643 43.8738 26.9352 43.8819 27.1143 43.8982C27.2933 43.9145 27.4805 43.9389 27.6758 43.9714L54.4336 48.073C55.1497 48.1707 55.7357 48.488 56.1914 49.0251C56.6471 49.5623 56.875 50.1889 56.875 50.905ZM56.875 40.0164C56.875 41.2208 56.639 42.3764 56.167 43.4832C55.695 44.5899 55.0358 45.5828 54.1895 46.4617L52.6758 46.2175C53.0339 45.4688 53.3024 44.6876 53.4814 43.8738C53.6605 43.06 53.75 42.2299 53.75 41.3835V38.5515C53.75 37.1518 53.4977 35.809 52.9932 34.5232C52.4886 33.2374 51.7806 32.0899 50.8691 31.0808C51.0319 30.9181 51.2109 30.796 51.4062 30.7146C51.6016 30.6332 51.8132 30.5925 52.041 30.5925C52.2363 30.5925 52.4235 30.6251 52.6025 30.6902C52.7816 30.7553 52.9525 30.8367 53.1152 30.9343C54.2871 31.8132 55.2067 32.9119 55.874 34.2302C56.5413 35.5486 56.875 36.9239 56.875 38.3562V40.0164ZM25.625 46.9988H27.1875V54.8113H25.625V46.9988ZM31.875 46.9988H33.4375V54.8113H31.875V46.9988ZM38.125 46.9988H39.6875V54.8113H38.125V46.9988ZM44.375 48.5613H45.9375V53.2488H44.375V48.5613ZM50.625 49.3425H52.1875V52.4675H50.625V49.3425Z" fill="white"/>
</svg>
