<svg width="70" height="71" viewBox="0 0 70 71" fill="none" xmlns="http://www.w3.org/2000/svg">
<rect y="0.280029" width="70" height="70" rx="7" fill="#C5CE38"/>
<g clip-path="url(#clip0_4138_837)">
<path d="M50.918 58.7175C50.2018 58.1967 49.4368 57.741 48.623 57.3503C47.8092 56.9597 46.9954 56.6179 46.1816 56.325C44.6842 55.739 42.6986 55.1694 40.2246 54.616C37.7507 54.0626 34.8047 53.7696 31.3867 53.7371C31.4518 53.2488 31.5576 52.6791 31.7041 52.0281C31.8506 51.377 32.0703 50.6609 32.3633 49.8796C32.6888 49.1309 33.055 48.4229 33.4619 47.7556C33.8688 47.0883 34.3327 46.4454 34.8535 45.8269C35.1139 45.9246 35.5371 46.0548 36.123 46.2175C36.709 46.3803 37.4251 46.4617 38.2715 46.4617C39.0202 46.4617 39.8421 46.3477 40.7373 46.1199C41.6325 45.892 42.5521 45.4526 43.4961 44.8015C45.7422 43.2716 46.9954 41.5789 47.2559 39.7234C47.5163 37.8679 47.6465 36.8751 47.6465 36.7449C47.6465 36.6147 47.6058 36.5007 47.5244 36.4031C47.443 36.3054 47.3372 36.224 47.207 36.1589C47.1745 36.1589 47.0117 36.0938 46.7188 35.9636C46.4258 35.8334 46.0352 35.7195 45.5469 35.6218C45.9375 34.9708 46.2793 34.3035 46.5723 33.6199C46.8652 32.9363 47.1094 32.2201 47.3047 31.4714C47.4349 31.0157 47.264 30.7309 46.792 30.6169C46.32 30.503 46.0189 30.6739 45.8887 31.1296C45.6934 31.9109 45.4248 32.6596 45.083 33.3757C44.7412 34.0919 44.3424 34.7755 43.8867 35.4265C43.1055 35.4265 42.2266 35.5404 41.25 35.7683C40.2734 35.9962 39.2806 36.4682 38.2715 37.1843C37.5228 37.7052 36.8962 38.2748 36.3916 38.8933C35.887 39.5118 35.4883 40.1303 35.1953 40.7488C34.5443 40.8139 33.9502 40.8383 33.4131 40.822C32.876 40.8057 32.4284 40.7813 32.0703 40.7488C32.4284 40.2279 32.9329 39.5769 33.584 38.7957C34.235 37.9819 34.9919 37.1274 35.8545 36.2322C36.7171 35.337 37.653 34.45 38.6621 33.571C39.6712 32.7247 40.7129 31.976 41.7871 31.325C42.2103 31.0971 42.2998 30.7716 42.0557 30.3484C41.8115 29.9252 41.4779 29.8276 41.0547 30.0554C38.9388 31.2924 37.0101 32.8468 35.2686 34.7185C33.527 36.5903 32.2168 38.1121 31.3379 39.2839C31.2728 38.1446 31.4437 36.6635 31.8506 34.8406C32.2575 33.0177 33.3073 31.2761 35 29.616C36.0742 28.5092 37.2624 27.6384 38.5645 27.0037C39.8665 26.3689 41.25 25.9701 42.7148 25.8074C43.4961 25.7423 44.1797 25.7341 44.7656 25.783C45.3516 25.8318 45.8073 25.8725 46.1328 25.905C46.1654 26.1003 46.1979 26.3526 46.2305 26.6619C46.263 26.9711 46.2793 27.321 46.2793 27.7117C46.2793 28.1674 46.5234 28.3953 47.0117 28.3953C47.5 28.3953 47.7441 28.1511 47.7441 27.6628C47.7441 26.9141 47.6953 26.3119 47.5977 25.8562C47.5 25.4005 47.4512 25.1563 47.4512 25.1238C47.4186 24.9936 47.3535 24.8878 47.2559 24.8064C47.1582 24.725 47.0605 24.6518 46.9629 24.5867C46.8978 24.5867 46.4665 24.5216 45.6689 24.3914C44.8714 24.2612 43.8542 24.2449 42.6172 24.3425C41.4779 24.4727 40.127 24.8308 38.5645 25.4167C37.002 26.0027 35.4557 27.0606 33.9258 28.5906C33.7956 28.7208 33.6735 28.8429 33.5596 28.9568C33.4456 29.0707 33.3398 29.1928 33.2422 29.323C33.4375 28.7045 33.6491 28.0535 33.877 27.3699C34.1048 26.6863 34.3327 26.0027 34.5605 25.3191C35.2116 25.1238 36.1963 24.6111 37.5146 23.781C38.833 22.9509 39.8503 21.5105 40.5664 19.4597C41.4453 16.8881 41.4453 14.7804 40.5664 13.1365C39.6875 11.4926 39.2155 10.6218 39.1504 10.5242C39.0527 10.4265 38.9469 10.3614 38.833 10.3289C38.7191 10.2963 38.597 10.28 38.4668 10.28C38.3691 10.3126 37.4658 10.6951 35.7568 11.4275C34.0479 12.1599 32.7376 13.8282 31.8262 16.4324C31.0775 18.5808 31.0205 20.4363 31.6553 21.9988C32.29 23.5613 32.7702 24.5541 33.0957 24.9773C32.9004 25.6283 32.6969 26.2712 32.4854 26.906C32.2738 27.5408 32.0703 28.1511 31.875 28.7371C31.7448 27.7605 31.46 26.7026 31.0205 25.5632C30.5811 24.4239 29.9219 23.3009 29.043 22.1941C27.7083 20.5014 26.3005 19.2725 24.8193 18.5076C23.3382 17.7426 22.0443 17.2299 20.9375 16.9695C19.7005 16.7091 18.6833 16.6033 17.8857 16.6521C17.0882 16.7009 16.6732 16.7253 16.6406 16.7253C16.5104 16.7579 16.3883 16.8149 16.2744 16.8962C16.1605 16.9776 16.0872 17.0671 16.0547 17.1648C16.0547 17.1973 15.9652 17.5066 15.7861 18.0925C15.6071 18.6785 15.4688 19.4434 15.3711 20.3875C15.3385 20.8757 15.5664 21.1362 16.0547 21.1687C16.543 21.2013 16.8034 20.9897 16.8359 20.5339C16.8685 19.9805 16.9336 19.5004 17.0312 19.0935C17.1289 18.6866 17.2103 18.3692 17.2754 18.1414C17.6009 18.1088 18.0566 18.1088 18.6426 18.1414C19.2285 18.1739 19.8958 18.2716 20.6445 18.4343C22.1094 18.7598 23.444 19.3132 24.6484 20.0945C25.8529 20.8757 26.9434 21.8848 27.9199 23.1218C28.7988 24.2612 29.4661 25.4981 29.9219 26.8328C30.3776 28.1674 30.5892 29.5834 30.5566 31.0808C30.5566 31.5691 30.5322 32.0167 30.4834 32.4236C30.4346 32.8305 30.3776 33.1967 30.3125 33.5222C28.8802 30.8204 27.3503 28.5499 25.7227 26.7107C24.0951 24.8715 23.2324 23.9031 23.1348 23.8054C22.8092 23.4799 22.4756 23.488 22.1338 23.8298C21.792 24.1716 21.7839 24.5053 22.1094 24.8308C22.1094 24.8634 22.9395 25.8155 24.5996 27.6873C26.2598 29.559 27.7897 31.8295 29.1895 34.4988C28.8639 34.4988 28.4896 34.4744 28.0664 34.4255C27.6432 34.3767 27.1875 34.3035 26.6992 34.2058C25.2669 33.8803 23.9567 33.3432 22.7686 32.5945C21.5804 31.8458 20.5143 30.8692 19.5703 29.6648C18.9193 28.851 18.3822 27.9884 17.959 27.0769C17.5358 26.1654 17.2266 25.2214 17.0312 24.2449C16.9336 23.7566 16.6488 23.5613 16.1768 23.6589C15.7048 23.7566 15.5176 24.0496 15.6152 24.5378C15.8431 25.6121 16.193 26.6619 16.665 27.6873C17.137 28.7126 17.7311 29.6811 18.4473 30.5925C19.7493 32.2527 21.1328 33.449 22.5977 34.1814C24.0625 34.9138 25.3483 35.4102 26.4551 35.6707C27.0085 35.7683 27.57 35.8497 28.1396 35.9148C28.7093 35.9799 29.2871 35.9962 29.873 35.9636V48.3171C29.7428 48.0567 29.6208 47.8126 29.5068 47.5847C29.3929 47.3569 29.2708 47.1453 29.1406 46.95C29.1732 46.5268 29.0592 45.2735 28.7988 43.1902C28.5384 41.1069 27.2363 39.1375 24.8926 37.282C22.3535 35.2638 19.9854 34.4337 17.7881 34.7917C15.5908 35.1498 14.4271 35.3451 14.2969 35.3777C14.1992 35.4428 14.1097 35.5242 14.0283 35.6218C13.9469 35.7195 13.89 35.8334 13.8574 35.9636C13.8249 36.0613 13.8981 37.225 14.0771 39.4548C14.2562 41.6847 15.6315 43.8087 18.2031 45.8269C19.375 46.7709 20.5632 47.4057 21.7676 47.7312C22.972 48.0567 24.0625 48.2195 25.0391 48.2195C25.6576 48.2195 26.2272 48.1788 26.748 48.0974C27.2689 48.016 27.6758 47.9265 27.9688 47.8289C28.4896 48.7403 28.9046 49.6843 29.2139 50.6609C29.5231 51.6375 29.7103 52.6628 29.7754 53.7371C27.8874 53.7696 26.0645 53.8917 24.3066 54.1033C22.5488 54.3149 20.8724 54.616 19.2773 55.0066C18.8216 55.1368 18.6507 55.4379 18.7646 55.9099C18.8786 56.3819 19.1634 56.5691 19.6191 56.4714C21.1816 56.0808 22.8174 55.7797 24.5264 55.5681C26.2354 55.3565 28.0176 55.2345 29.873 55.2019V56.8621C29.873 57.3503 30.1172 57.5945 30.6055 57.5945C31.0938 57.5945 31.3379 57.3503 31.3379 56.8621V55.2019C33.4863 55.2019 35.4395 55.3321 37.1973 55.5925C38.9876 55.8529 40.5827 56.1622 41.9824 56.5203C43.3822 56.8783 44.6029 57.2527 45.6445 57.6433C46.6862 58.0665 47.5488 58.4571 48.2324 58.8152H13.2227C13.5807 58.6199 13.9876 58.4164 14.4434 58.2048C14.8991 57.9932 15.4199 57.7898 16.0059 57.5945C16.429 57.4317 16.5592 57.1225 16.3965 56.6667C16.2337 56.211 15.9245 56.0645 15.4688 56.2273C14.5573 56.5528 13.776 56.8865 13.125 57.2283C12.474 57.5701 11.9531 57.8549 11.5625 58.0828C10.7812 58.5385 10.3255 58.864 10.1953 59.0593C10.0651 59.2546 10 59.4174 10 59.5476C10 59.7429 10.0732 59.9138 10.2197 60.0603C10.3662 60.2068 10.5371 60.28 10.7324 60.28H50.7715C51.3574 60.28 51.5934 60.0684 51.4795 59.6453C51.3656 59.2221 51.1784 58.9128 50.918 58.7175ZM39.1016 38.405C40.6315 37.3308 42.0638 36.8344 43.3984 36.9158C44.7331 36.9972 45.6608 37.1355 46.1816 37.3308C46.1491 37.8842 45.9375 38.8038 45.5469 40.0896C45.1562 41.3754 44.196 42.5391 42.666 43.5808C41.2988 44.5574 39.9967 45.0294 38.7598 44.9968C37.5228 44.9643 36.5951 44.8503 35.9766 44.655C36.6927 44.004 37.4902 43.3936 38.3691 42.824C39.248 42.2543 40.2083 41.7579 41.25 41.3347C41.6732 41.1394 41.7871 40.8139 41.5918 40.3582C41.3965 39.9024 41.0872 39.7722 40.6641 39.9675C39.7201 40.3582 38.8656 40.7895 38.1006 41.2615C37.3356 41.7335 36.6439 42.2299 36.0254 42.7507C36.1882 42.0671 36.5055 41.3266 36.9775 40.5291C37.4495 39.7315 38.1576 39.0235 39.1016 38.405ZM33.584 42.3113C33.7467 42.3113 33.9176 42.3031 34.0967 42.2869C34.2757 42.2706 34.4466 42.2625 34.6094 42.2625C34.4792 42.6856 34.3896 43.0763 34.3408 43.4343C34.292 43.7924 34.2676 44.1016 34.2676 44.3621C33.5514 45.0782 32.9574 45.8106 32.4854 46.5593C32.0133 47.308 31.6309 48.0242 31.3379 48.7078V42.116C31.5658 42.1485 31.875 42.1892 32.2656 42.238C32.6562 42.2869 33.0957 42.3113 33.584 42.3113ZM33.1934 16.9207C33.8118 15.1303 34.6826 13.877 35.8057 13.1609C36.9287 12.4447 37.7507 12.0053 38.2715 11.8425C38.597 12.2983 38.9795 13.1609 39.4189 14.4304C39.8584 15.7 39.7689 17.2136 39.1504 18.9714C38.6947 20.3061 38.0762 21.3233 37.2949 22.0232C36.5137 22.7231 35.7975 23.2195 35.1465 23.5125C35.6348 22.1127 36.0986 20.7862 36.5381 19.533C36.9775 18.2797 37.3763 17.2299 37.7344 16.3835C37.8971 15.9604 37.7507 15.6511 37.2949 15.4558C36.8392 15.2605 36.5299 15.3907 36.3672 15.8464C36.0091 16.6928 35.6022 17.767 35.1465 19.0691C34.6908 20.3712 34.2188 21.7546 33.7305 23.2195C33.3724 22.5684 33.0794 21.6977 32.8516 20.6072C32.6237 19.5167 32.7376 18.2878 33.1934 16.9207ZM19.082 44.7039C18.1706 43.9552 17.4137 43.1169 16.8115 42.1892C16.2093 41.2615 15.778 40.2442 15.5176 39.1375C15.3874 38.5841 15.3141 38.0876 15.2979 37.6482C15.2816 37.2087 15.2734 36.8588 15.2734 36.5984C15.8919 36.4356 17.0475 36.338 18.7402 36.3054C20.4329 36.2729 22.1908 36.9727 24.0137 38.405C24.9251 39.1212 25.6657 39.9431 26.2354 40.8708C26.805 41.7986 27.2201 42.8158 27.4805 43.9226C27.513 44.0854 27.5456 44.24 27.5781 44.3865C27.6107 44.533 27.627 44.6713 27.627 44.8015C27.3991 44.5085 27.1631 44.2319 26.9189 43.9714C26.6748 43.711 26.4225 43.4669 26.1621 43.239C24.9251 42.0671 23.7777 41.2126 22.7197 40.6755C21.6618 40.1384 21.1003 39.8699 21.0352 39.8699C20.612 39.6746 20.3109 39.8048 20.1318 40.2605C19.9528 40.7162 20.0749 41.0417 20.498 41.2371C20.5306 41.2371 21.027 41.4812 21.9873 41.9695C22.9476 42.4578 24.0137 43.239 25.1855 44.3132C25.5436 44.6713 25.8854 45.0375 26.2109 45.4119C26.5365 45.7862 26.8457 46.1687 27.1387 46.5593C26.3249 46.7221 25.1693 46.7546 23.6719 46.657C22.1745 46.5593 20.6445 45.9083 19.082 44.7039Z" fill="white"/>
</g>
<defs>
<clipPath id="clip0_4138_837">
<rect width="50" height="50" fill="white" transform="matrix(1 0 0 -1 10 60.28)"/>
</clipPath>
</defs>
</svg>
