<svg width="70" height="71" viewBox="0 0 70 71" fill="none" xmlns="http://www.w3.org/2000/svg">
<rect y="0.280029" width="70" height="70" rx="7" fill="#C5CE38"/>
<path d="M19.7656 50.905C21.1654 50.905 22.3617 50.4086 23.3545 49.4158C24.3473 48.4229 24.8438 47.2266 24.8438 45.8269C24.8438 44.4272 24.3473 43.2309 23.3545 42.238C22.3617 41.2452 21.1654 40.7488 19.7656 40.7488C18.3659 40.7488 17.1696 41.2452 16.1768 42.238C15.1839 43.2309 14.6875 44.4272 14.6875 45.8269C14.6875 47.2266 15.1839 48.4229 16.1768 49.4158C17.1696 50.4086 18.3659 50.905 19.7656 50.905ZM19.7656 42.3113C20.7422 42.3113 21.5723 42.6531 22.2559 43.3367C22.9395 44.0203 23.2812 44.8503 23.2812 45.8269C23.2812 46.8035 22.9395 47.6335 22.2559 48.3171C21.5723 49.0007 20.7422 49.3425 19.7656 49.3425C18.7891 49.3425 17.959 49.0007 17.2754 48.3171C16.5918 47.6335 16.25 46.8035 16.25 45.8269C16.25 44.8503 16.5918 44.0203 17.2754 43.3367C17.959 42.6531 18.7891 42.3113 19.7656 42.3113ZM46.8164 51.6863C47.6953 51.6863 48.4521 51.3689 49.0869 50.7341C49.7217 50.0994 50.0391 49.3425 50.0391 48.4636C50.0391 47.5847 49.7217 46.8279 49.0869 46.1931C48.4521 45.5583 47.6953 45.241 46.8164 45.241C45.9375 45.241 45.1807 45.5583 44.5459 46.1931C43.9111 46.8279 43.5938 47.5847 43.5938 48.4636C43.5938 49.3425 43.9111 50.0994 44.5459 50.7341C45.1807 51.3689 45.9375 51.6863 46.8164 51.6863ZM46.8164 46.8035C47.2721 46.8035 47.6628 46.9662 47.9883 47.2917C48.3138 47.6173 48.4766 48.0079 48.4766 48.4636C48.4766 48.9194 48.3138 49.31 47.9883 49.6355C47.6628 49.961 47.2721 50.1238 46.8164 50.1238C46.3607 50.1238 45.9701 49.961 45.6445 49.6355C45.319 49.31 45.1562 48.9194 45.1562 48.4636C45.1562 48.0079 45.319 47.6173 45.6445 47.2917C45.9701 46.9662 46.3607 46.8035 46.8164 46.8035ZM54.5312 43.8738H53.75V37.4773C53.75 36.2403 53.3024 35.1742 52.4072 34.2791C51.512 33.3839 50.446 32.9363 49.209 32.9363H45.1562V29.8113C45.1562 29.5834 45.083 29.3962 44.9365 29.2498C44.79 29.1033 44.6029 29.03 44.375 29.03H43.5938V25.5632L45.5957 24.196C45.6934 24.1309 45.7747 24.0414 45.8398 23.9275C45.9049 23.8136 45.9375 23.6915 45.9375 23.5613C45.9375 23.3334 45.8643 23.1462 45.7178 22.9998C45.5713 22.8533 45.3841 22.78 45.1562 22.78C45.0586 22.78 44.9772 22.7882 44.9121 22.8044C44.847 22.8207 44.7819 22.8614 44.7168 22.9265L42.373 24.489C42.2754 24.5541 42.194 24.6436 42.1289 24.7576C42.0638 24.8715 42.0312 24.9936 42.0312 25.1238V29.03H41.25C41.0221 29.03 40.835 29.1033 40.6885 29.2498C40.542 29.3962 40.4688 29.5834 40.4688 29.8113V32.9363H38.7109L34.4629 18.825C34.6257 18.7598 34.7559 18.6622 34.8535 18.532C34.9512 18.4018 35 18.2553 35 18.0925V16.3347C35 15.7488 34.7884 15.2442 34.3652 14.821C33.9421 14.3979 33.4375 14.1863 32.8516 14.1863H18.3984C17.8125 14.1863 17.3079 14.3979 16.8848 14.821C16.4616 15.2442 16.25 15.7488 16.25 16.3347V18.0925C16.25 18.2878 16.307 18.4506 16.4209 18.5808C16.5348 18.711 16.6732 18.7924 16.8359 18.825L13.9551 31.032L10.1953 35.573C10.1302 35.6381 10.0814 35.7113 10.0488 35.7927C10.0163 35.8741 10 35.9636 10 36.0613C10 36.2891 10.0732 36.4763 10.2197 36.6228C10.3662 36.7693 10.5534 36.8425 10.7812 36.8425H14.6875C14.7852 36.8425 14.8828 36.8181 14.9805 36.7693C15.0781 36.7205 15.1595 36.6635 15.2246 36.5984L16.1523 35.7195L16.6895 36.5984C14.7363 37.2494 13.1331 38.4132 11.8799 40.0896C10.6266 41.766 10 43.6785 10 45.8269C10 47.1941 10.2604 48.4636 10.7812 49.6355C11.2695 50.8074 11.9613 51.8409 12.8564 52.7361C13.7516 53.6313 14.7852 54.323 15.957 54.8113C17.1289 55.3321 18.3984 55.5925 19.7656 55.5925C21.9792 55.5925 23.9404 54.9333 25.6494 53.615C27.3584 52.2966 28.5059 50.6283 29.0918 48.6101L29.1406 48.5613H39.6875C39.7201 50.5144 40.4281 52.1746 41.8115 53.5417C43.195 54.9089 44.8633 55.5925 46.8164 55.5925C48.7695 55.5925 50.4378 54.9089 51.8213 53.5417C53.2048 52.1746 53.9128 50.5144 53.9453 48.5613H54.5312C55.1823 48.5613 55.7357 48.3334 56.1914 47.8777C56.6471 47.422 56.875 46.8686 56.875 46.2175C56.875 45.5665 56.6471 45.0131 56.1914 44.5574C55.7357 44.1016 55.1823 43.8738 54.5312 43.8738ZM49.209 34.4988C50.0228 34.4988 50.7227 34.7917 51.3086 35.3777C51.8945 35.9636 52.1875 36.6635 52.1875 37.4773V43.825C51.5365 43.0763 50.7471 42.474 49.8193 42.0183C48.8916 41.5626 47.8906 41.3347 46.8164 41.3347C46.5234 41.3347 46.2305 41.351 45.9375 41.3835C45.6445 41.4161 45.3678 41.4812 45.1074 41.5789L45.1562 41.53V34.4988H49.209ZM42.0312 30.5925H43.5938V42.116C43.3008 42.2787 43.0241 42.4496 42.7637 42.6287C42.5033 42.8077 42.2591 42.9949 42.0312 43.1902V30.5925ZM37.0508 46.9988L35.3906 43.8738H37.3438V46.9988H37.0508ZM15.6641 30.5925L18.4473 18.8738H20.1562V30.5925H15.6641ZM21.7188 18.8738H23.2812V30.5925H21.7188V18.8738ZM24.8438 18.8738H32.8516L37.0508 32.9363H35.5859C35.5534 32.9363 35.5208 32.9363 35.4883 32.9363C35.4557 32.9363 35.4395 32.9363 35.4395 32.9363L34.3164 31.2761L34.707 31.032C34.8047 30.9669 34.8779 30.8774 34.9268 30.7634C34.9756 30.6495 35 30.5274 35 30.3972C35 30.1694 34.9268 29.9822 34.7803 29.8357C34.6338 29.6892 34.4466 29.616 34.2188 29.616C34.1211 29.616 34.0316 29.6322 33.9502 29.6648C33.8688 29.6973 33.7956 29.7299 33.7305 29.7625L31.3867 31.5203C31.2891 31.5854 31.2158 31.6749 31.167 31.7888C31.1182 31.9028 31.0938 32.0248 31.0938 32.155C31.0938 32.3829 31.167 32.5701 31.3135 32.7166C31.46 32.863 31.6471 32.9363 31.875 32.9363C31.9727 32.9363 32.0622 32.92 32.1436 32.8875C32.2249 32.8549 32.2982 32.8223 32.3633 32.7898L33.0957 32.2527L33.877 33.4734C33.5189 33.7338 33.2259 34.0756 32.998 34.4988C32.7702 34.922 32.6562 35.3777 32.6562 35.866V38.6492L28.6523 31.032C28.5872 30.9018 28.4977 30.796 28.3838 30.7146C28.2699 30.6332 28.1315 30.5925 27.9688 30.5925H24.8438V18.8738ZM35.5859 34.4988H37.3438V36.0613H34.2188V35.866C34.2188 35.4753 34.349 35.1498 34.6094 34.8894C34.8698 34.629 35.1953 34.4988 35.5859 34.4988ZM34.2188 37.6238H37.3438V39.1863H34.2188V37.6238ZM34.2188 41.6277C34.2188 41.5951 34.2188 41.5707 34.2188 41.5544C34.2188 41.5382 34.2188 41.53 34.2188 41.53V40.7488H37.3438V42.3113H34.5605L34.2188 41.6277ZM17.8125 16.3347C17.8125 16.172 17.8695 16.0336 17.9834 15.9197C18.0973 15.8057 18.2357 15.7488 18.3984 15.7488H32.8516C33.0143 15.7488 33.1527 15.8057 33.2666 15.9197C33.3805 16.0336 33.4375 16.172 33.4375 16.3347V17.3113H17.8125V16.3347ZM11.6602 47.0476L13.6133 45.7292C13.7435 45.6316 13.8411 45.5258 13.9062 45.4119C13.9714 45.2979 14.0039 45.1759 14.0039 45.0457C14.0039 44.8503 13.9225 44.6713 13.7598 44.5085C13.597 44.3458 13.418 44.2644 13.2227 44.2644C13.125 44.2644 13.0436 44.2807 12.9785 44.3132C12.9134 44.3458 12.8483 44.3783 12.7832 44.4109L11.6113 45.1921C11.6764 44.3783 11.8473 43.6134 12.124 42.8972C12.4007 42.1811 12.7669 41.53 13.2227 40.9441H13.1738L15.5176 41.4324C15.5501 41.4324 15.5745 41.4324 15.5908 41.4324C15.6071 41.4324 15.6315 41.4324 15.6641 41.4324C15.8919 41.4324 16.0791 41.3591 16.2256 41.2126C16.3721 41.0662 16.4453 40.879 16.4453 40.6511C16.4453 40.4558 16.3883 40.2849 16.2744 40.1384C16.1605 39.9919 16.0059 39.9024 15.8105 39.8699L14.4434 39.6257C14.9967 39.1375 15.6234 38.7306 16.3232 38.405C17.0231 38.0795 17.7474 37.8516 18.4961 37.7214H18.5449L19.8633 39.7234C19.9609 39.821 20.0667 39.9024 20.1807 39.9675C20.2946 40.0326 20.4167 40.0652 20.5469 40.0652C20.7422 40.0652 20.9212 39.9919 21.084 39.8455C21.2467 39.699 21.3281 39.5118 21.3281 39.2839C21.3281 39.1863 21.3118 39.1049 21.2793 39.0398C21.2467 38.9747 21.2142 38.9096 21.1816 38.8445L20.4004 37.6726C21.2142 37.7377 21.9792 37.9086 22.6953 38.1853C23.4115 38.462 24.0625 38.8282 24.6484 39.2839L24.1602 41.5789C24.1602 41.6114 24.1602 41.644 24.1602 41.6765C24.1602 41.7091 24.1602 41.7416 24.1602 41.7742C24.1602 41.9695 24.2334 42.1485 24.3799 42.3113C24.5264 42.474 24.7135 42.5554 24.9414 42.5554C25.1367 42.5554 25.3076 42.4903 25.4541 42.3601C25.6006 42.2299 25.6901 42.0834 25.7227 41.9207L25.9668 40.5046C26.4551 41.0906 26.862 41.7253 27.1875 42.4089C27.513 43.0925 27.7409 43.825 27.8711 44.6062V44.655L25.8691 45.9734C25.7715 46.0385 25.6901 46.128 25.625 46.2419C25.5599 46.3559 25.5273 46.4779 25.5273 46.6082C25.5273 46.836 25.6006 47.0232 25.7471 47.1697C25.8936 47.3162 26.0807 47.3894 26.3086 47.3894C26.3737 47.3894 26.4469 47.3813 26.5283 47.365C26.6097 47.3487 26.6829 47.3243 26.748 47.2917L27.9199 46.4617C27.8548 47.2755 27.6839 48.0404 27.4072 48.7566C27.1305 49.4727 26.7643 50.1401 26.3086 50.7585V50.7097L24.0137 50.2703C23.9811 50.2703 23.9486 50.2621 23.916 50.2458C23.8835 50.2296 23.8509 50.2214 23.8184 50.2214C23.623 50.2214 23.444 50.3028 23.2812 50.4656C23.1185 50.6283 23.0371 50.8074 23.0371 51.0027C23.0371 51.198 23.1022 51.3689 23.2324 51.5154C23.3626 51.6619 23.5091 51.7514 23.6719 51.7839L25.0879 52.0769C24.502 52.5652 23.8672 52.9639 23.1836 53.2732C22.5 53.5824 21.7676 53.8022 20.9863 53.9324H20.9375L19.6191 51.9792C19.554 51.849 19.4645 51.7514 19.3506 51.6863C19.2367 51.6212 19.1146 51.5886 18.9844 51.5886C18.7565 51.5886 18.5693 51.67 18.4229 51.8328C18.2764 51.9955 18.2031 52.1746 18.2031 52.3699C18.2031 52.4675 18.2113 52.5489 18.2275 52.614C18.2438 52.6791 18.2682 52.7442 18.3008 52.8093L19.1309 53.9812C18.3171 53.9161 17.5521 53.7452 16.8359 53.4685C16.1198 53.1918 15.4525 52.8256 14.834 52.3699L14.8828 52.4187L15.3223 50.075C15.3223 50.0424 15.3304 50.018 15.3467 50.0017C15.363 49.9854 15.3711 49.961 15.3711 49.9285C15.3711 49.7006 15.2897 49.5134 15.127 49.3669C14.9642 49.2205 14.7852 49.1472 14.5898 49.1472C14.3945 49.1472 14.2236 49.2042 14.0771 49.3181C13.9307 49.432 13.8411 49.5867 13.8086 49.782L13.5156 51.1492C13.0273 50.5958 12.6286 49.9692 12.3193 49.2693C12.0101 48.5694 11.7904 47.8451 11.6602 47.0964V47.0476ZM19.7656 36.0613C19.5052 36.0613 19.2529 36.0776 19.0088 36.1101C18.7646 36.1427 18.5124 36.1752 18.252 36.2078H18.3008L17.7148 35.28H25.918L32.1191 46.9988H29.4336C29.4661 46.836 29.4906 46.657 29.5068 46.4617C29.5231 46.2664 29.5312 46.0548 29.5312 45.8269C29.5312 44.4923 29.2708 43.2227 28.75 42.0183C28.2292 40.8464 27.5293 39.821 26.6504 38.9421C25.7715 38.0632 24.7461 37.3634 23.5742 36.8425C22.3698 36.3217 21.1003 36.0613 19.7656 36.0613ZM33.9258 46.9988L27.0898 34.157C27.0247 34.0268 26.9352 33.921 26.8213 33.8396C26.7074 33.7582 26.569 33.7175 26.4062 33.7175H16.25C16.1523 33.7175 16.0547 33.7419 15.957 33.7908C15.8594 33.8396 15.778 33.8966 15.7129 33.9617L14.3457 35.28H12.4414L15.0293 32.155H27.4805L35.293 46.9988H33.9258ZM38.9062 34.4988H40.4688V45.241C40.3385 45.5014 40.2165 45.7781 40.1025 46.071C39.9886 46.364 39.8991 46.657 39.834 46.95V46.9988H38.9062V34.4988ZM41.3965 49.6355L42.373 48.9519C42.4707 48.8542 42.5521 48.7566 42.6172 48.6589C42.6823 48.5613 42.7148 48.4473 42.7148 48.3171C42.7148 48.0893 42.6416 47.9021 42.4951 47.7556C42.3486 47.6091 42.1615 47.5359 41.9336 47.5359C41.8685 47.5359 41.7952 47.544 41.7139 47.5603C41.6325 47.5766 41.5592 47.601 41.4941 47.6335L41.2988 47.78C41.3639 47.3569 41.4697 46.95 41.6162 46.5593C41.7627 46.1687 41.9499 45.7944 42.1777 45.4363H42.1289L43.3496 45.6804C43.3822 45.6804 43.4066 45.6804 43.4229 45.6804C43.4391 45.6804 43.4635 45.6804 43.4961 45.6804C43.724 45.6804 43.9111 45.6072 44.0576 45.4607C44.2041 45.3142 44.2773 45.127 44.2773 44.8992C44.2773 44.7039 44.2122 44.533 44.082 44.3865C43.9518 44.24 43.8053 44.1505 43.6426 44.1179L43.3984 44.0691C43.724 43.8412 44.0658 43.6378 44.4238 43.4587C44.7819 43.2797 45.1725 43.1414 45.5957 43.0437H45.6445L46.3281 44.0691C46.4258 44.1667 46.5234 44.2481 46.6211 44.3132C46.7188 44.3783 46.8327 44.4109 46.9629 44.4109C47.1908 44.4109 47.3779 44.3295 47.5244 44.1667C47.6709 44.004 47.7441 43.825 47.7441 43.6296C47.7441 43.532 47.736 43.4425 47.7197 43.3611C47.7034 43.2797 47.679 43.2065 47.6465 43.1414L47.5 42.946C47.9232 43.0111 48.3301 43.1169 48.7207 43.2634C49.1113 43.4099 49.4857 43.5971 49.8438 43.825L49.5996 44.9968C49.5996 45.0294 49.5996 45.0619 49.5996 45.0945C49.5996 45.127 49.5996 45.1433 49.5996 45.1433C49.5996 45.3712 49.6729 45.5583 49.8193 45.7048C49.9658 45.8513 50.153 45.9246 50.3809 45.9246C50.5762 45.9246 50.7471 45.8676 50.8936 45.7537C51.04 45.6397 51.1296 45.4851 51.1621 45.2898L51.2109 45.0457C51.4388 45.3712 51.6423 45.7211 51.8213 46.0955C52.0003 46.4698 52.1387 46.8523 52.2363 47.2429V47.2917L51.2109 48.0242C51.1133 48.0893 51.0319 48.1788 50.9668 48.2927C50.9017 48.4067 50.8691 48.5287 50.8691 48.6589C50.8691 48.8542 50.9505 49.0333 51.1133 49.196C51.276 49.3588 51.4551 49.4402 51.6504 49.4402C51.748 49.4402 51.8376 49.4239 51.9189 49.3914C52.0003 49.3588 52.0736 49.3263 52.1387 49.2937L52.334 49.1472C52.2689 49.6029 52.1631 50.0261 52.0166 50.4167C51.8701 50.8074 51.6829 51.1654 51.4551 51.491L50.2832 51.2468C50.2507 51.2468 50.2262 51.2468 50.21 51.2468C50.1937 51.2468 50.1693 51.2468 50.1367 51.2468C49.9089 51.2468 49.7217 51.3282 49.5752 51.491C49.4287 51.6537 49.3555 51.8328 49.3555 52.0281C49.3555 52.2234 49.4124 52.3943 49.5264 52.5408C49.6403 52.6873 49.7949 52.7768 49.9902 52.8093L50.2344 52.8582C49.9089 53.086 49.5589 53.2895 49.1846 53.4685C48.8102 53.6475 48.4277 53.7859 48.0371 53.8835H47.9883L47.2559 52.907C47.1908 52.8093 47.1012 52.7279 46.9873 52.6628C46.8734 52.5977 46.7513 52.5652 46.6211 52.5652C46.4258 52.5652 46.2467 52.6384 46.084 52.7849C45.9212 52.9314 45.8398 53.1186 45.8398 53.3464C45.8398 53.4115 45.8561 53.4848 45.8887 53.5662C45.9212 53.6475 45.9538 53.7208 45.9863 53.7859L46.1328 53.9812C45.6771 53.9161 45.2539 53.8103 44.8633 53.6638C44.4727 53.5173 44.1146 53.3302 43.7891 53.1023V53.1511L44.0332 51.9304C44.0332 51.8979 44.0332 51.8735 44.0332 51.8572C44.0332 51.8409 44.0332 51.8165 44.0332 51.7839C44.0332 51.5886 43.9518 51.4096 43.7891 51.2468C43.6263 51.0841 43.4473 51.0027 43.252 51.0027C43.0566 51.0027 42.8857 51.0678 42.7393 51.198C42.5928 51.3282 42.5033 51.4747 42.4707 51.6375L42.4219 51.8816C42.194 51.5886 41.9906 51.255 41.8115 50.8806C41.6325 50.5063 41.4941 50.1075 41.3965 49.6843V49.6355ZM54.5312 46.9988H53.7988C53.7337 46.7058 53.6523 46.4291 53.5547 46.1687C53.457 45.9083 53.3431 45.6479 53.2129 45.3875L53.2617 45.4363H54.5312C54.7591 45.4363 54.9463 45.5095 55.0928 45.656C55.2393 45.8025 55.3125 45.9897 55.3125 46.2175C55.3125 46.4454 55.2393 46.6326 55.0928 46.7791C54.9463 46.9255 54.7591 46.9988 54.5312 46.9988ZM47.5 39.1863C47.7279 39.1863 47.915 39.113 48.0615 38.9666C48.208 38.8201 48.2812 38.6329 48.2812 38.405V36.8425C48.2812 36.6147 48.208 36.4275 48.0615 36.281C47.915 36.1345 47.7279 36.0613 47.5 36.0613C47.2721 36.0613 47.085 36.1345 46.9385 36.281C46.792 36.4275 46.7188 36.6147 46.7188 36.8425V38.405C46.7188 38.6329 46.792 38.8201 46.9385 38.9666C47.085 39.113 47.2721 39.1863 47.5 39.1863ZM49.8438 39.1863C50.0716 39.1863 50.2588 39.113 50.4053 38.9666C50.5518 38.8201 50.625 38.6329 50.625 38.405V36.8425C50.625 36.6147 50.5518 36.4275 50.4053 36.281C50.2588 36.1345 50.0716 36.0613 49.8438 36.0613C49.6159 36.0613 49.4287 36.1345 49.2822 36.281C49.1357 36.4275 49.0625 36.6147 49.0625 36.8425V38.405C49.0625 38.6329 49.1357 38.8201 49.2822 38.9666C49.4287 39.113 49.6159 39.1863 49.8438 39.1863Z" fill="white"/>
</svg>
